<svg width="24" height="24" viewBox="0 0 24 24" fill="none" xmlns="http://www.w3.org/2000/svg">
<path d="M4.56515 4.23878L4.12033 0L2.6286 0.15809L4.42084 17.2354L4.50722 18.082L19.0996 14.8116C20.4848 14.5011 21.7365 13.7169 22.6241 12.604C23.5117 11.4906 24.0005 10.0923 24.0005 8.66529V4.23878H4.56515ZM5.82722 16.2411L4.75653 5.74687H22.5V8.66477C22.5 9.75008 22.1281 10.8135 21.4531 11.6602C20.7781 12.5068 19.8264 13.1032 18.7727 13.3393L5.8267 16.2411H5.82722Z" fill="black"/>
<path d="M2.94828 18.0717C1.32259 18.0717 0 19.4014 0 21.0358C0 22.6703 1.32259 24 2.94828 24C4.57397 24 5.89655 22.6703 5.89655 21.0358C5.89655 19.4014 4.57397 18.0717 2.94828 18.0717ZM2.94828 22.4919C2.14966 22.4919 1.5 21.8388 1.5 21.0358C1.5 20.2329 2.14966 19.5797 2.94828 19.5797C3.7469 19.5797 4.39655 20.2329 4.39655 21.0358C4.39655 21.8388 3.7469 22.4919 2.94828 22.4919Z" fill="black"/>
<path d="M18.8276 18.0717C17.2019 18.0717 15.8793 19.4014 15.8793 21.0358C15.8793 22.6703 17.2019 24 18.8276 24C20.4533 24 21.7759 22.6703 21.7759 21.0358C21.7759 19.4014 20.4533 18.0717 18.8276 18.0717ZM18.8276 22.4919C18.029 22.4919 17.3793 21.8388 17.3793 21.0358C17.3793 20.2329 18.029 19.5797 18.8276 19.5797C19.6262 19.5797 20.2759 20.2329 20.2759 21.0358C20.2759 21.8388 19.6262 22.4919 18.8276 22.4919Z" fill="black"/>
</svg>
