<svg width="14" height="10" viewBox="0 0 14 10" fill="none" xmlns="http://www.w3.org/2000/svg">
<path d="M0.2955 5.47787C0.20213 5.38904 0.127789 5.28216 0.0769916 5.16371C0.0261941 5.04527 0 4.91774 0 4.78887C0 4.65999 0.0261941 4.53246 0.0769916 4.41402C0.127789 4.29558 0.20213 4.1887 0.2955 4.09987L0.2625 4.13087C0.456752 3.94695 0.714296 3.84479 0.9818 3.84553C1.2493 3.84628 1.50628 3.94987 1.6995 4.13487L4.5795 6.90487L11.4645 0.282867C11.6584 0.100969 11.9143 -0.000185533 12.1802 2.5547e-07C12.4461 0.000186044 12.7019 0.101699 12.8955 0.283867L12.8625 0.252867C12.9565 0.341869 13.0313 0.44916 13.0823 0.568143C13.1333 0.687125 13.1594 0.815282 13.159 0.944731C13.1587 1.07418 13.1318 1.20218 13.0801 1.32087C13.0284 1.43955 12.953 1.54641 12.8585 1.63487L5.3005 8.90287C5.10609 9.08583 4.84945 9.18813 4.58249 9.18905C4.31552 9.18998 4.05817 9.08948 3.8625 8.90787L0.2955 5.47787Z" fill="#2764E0"/>
</svg>
