<svg width="24" height="24" viewBox="0 0 24 24" fill="none" xmlns="http://www.w3.org/2000/svg">
<path d="M6.10078 0C5.96641 0 5.69765 0 5.45577 0C4.91825 0.0268757 4.21948 0.0537514 3.92385 0.134378C3.44009 0.241881 2.9832 0.37626 2.60694 0.56439C2.17693 0.779395 1.7738 1.07503 1.42441 1.42441C1.07503 1.7738 0.806271 2.15006 0.56439 2.60694C0.37626 2.9832 0.215006 3.44009 0.134378 3.89698C0.0806271 4.21948 0.0268757 4.91825 0 5.45577V6.10078V17.8992V18.5442C0.0268757 19.0817 0.0537514 19.7805 0.134378 20.0761C0.241881 20.5599 0.37626 21.0168 0.56439 21.3931C0.779395 21.8231 1.07503 22.2262 1.42441 22.5756C1.7738 22.925 2.15006 23.1937 2.60694 23.4356C2.9832 23.6237 3.44009 23.785 3.89698 23.8656C4.21948 23.9194 4.91825 23.9731 5.45577 24H6.10078H17.8992H18.5442C19.0817 23.9731 19.7805 23.9462 20.0761 23.8656C20.5599 23.7581 21.0168 23.6237 21.3931 23.4356C21.8231 23.2206 22.2262 22.925 22.5756 22.5756C22.925 22.2262 23.1937 21.8499 23.4356 21.3931C23.6237 21.0168 23.785 20.5599 23.8656 20.103C23.9194 19.7805 23.9731 19.0817 24 18.5442C24 18.3292 24 18.0336 24 17.8992V6.10078C24 5.96641 24 5.69765 24 5.45577C23.9731 4.91825 23.9462 4.21948 23.8656 3.92385C23.7581 3.44009 23.6237 2.9832 23.4356 2.60694C23.2206 2.17693 22.925 1.7738 22.5756 1.42441C22.2262 1.07503 21.8499 0.806271 21.3931 0.56439C21.0168 0.37626 20.5599 0.215006 20.103 0.134378C19.7805 0.0806271 19.0817 0.0268757 18.5442 0C18.3292 0 18.0336 0 17.8992 0H6.10078Z" fill="url(#paint0_linear_2010_7)"/>
<path fill-rule="evenodd" clip-rule="evenodd" d="M11.2299 14.2466C11.2461 14.2547 11.2704 14.2547 11.2704 14.2547V14.2709C11.2947 14.2709 11.3432 14.2385 11.3432 14.2385L12.2176 13.3647C12.226 13.3563 12.2343 13.3485 12.2424 13.3409C12.2657 13.3193 12.2865 13.2997 12.2986 13.2757C12.3147 13.2433 12.3228 13.211 12.3067 13.1786C12.2905 13.1463 12.2662 13.1139 12.2338 13.1139C11.9018 13.041 11.6023 12.8792 11.3594 12.6365C11.0761 12.3614 10.9061 11.9973 10.8656 11.5847C10.817 11.075 10.9951 10.5733 11.3594 10.2093L13.6505 7.91955C14.2982 7.27229 15.4316 7.27229 16.0792 7.91955C16.4031 8.25128 16.5812 8.68009 16.5812 9.14127C16.5812 9.60245 16.4031 10.0394 16.0792 10.363L15.035 11.3986C15.0107 11.4229 15.0026 11.4633 15.0107 11.4957C15.1078 11.8436 15.1645 12.2077 15.1645 12.5718C15.1645 12.7498 15.1564 12.9035 15.1321 13.0329C15.1321 13.0734 15.1483 13.122 15.1888 13.1382C15.2292 13.1624 15.2778 13.1543 15.3102 13.122L17.0831 11.3582C18.3056 10.1284 18.3056 8.13801 17.0831 6.91629C15.8607 5.69457 13.8691 5.69457 12.6466 6.91629L10.3555 9.206C10.1532 9.40827 9.99124 9.62672 9.86981 9.84518C9.86711 9.84787 9.86351 9.85056 9.85991 9.85326C9.85271 9.85866 9.84552 9.86406 9.84552 9.86945C9.34358 10.7675 9.3031 11.8517 9.74836 12.7741C9.90219 13.0896 10.0965 13.3728 10.3555 13.6317C10.6065 13.8906 10.906 14.101 11.2299 14.2466ZM6.92292 17.0776C7.5382 17.6844 8.33968 17.9919 9.14117 17.9919L9.11688 18C9.91837 18 10.7279 17.6925 11.3351 17.0857L13.6262 14.796C14.0472 14.3753 14.3386 13.8575 14.4682 13.2831L14.5168 12.927C14.533 12.8462 14.533 12.7652 14.533 12.6843V12.652V12.5791V12.3607C14.533 12.2797 14.5249 12.1989 14.5087 12.1341C14.5006 12.0451 14.4844 11.9723 14.4682 11.8995C14.4521 11.8186 14.4277 11.7296 14.3953 11.6325C14.2577 11.1713 13.9987 10.7344 13.6343 10.3703C13.3915 10.1276 13.0919 9.91724 12.7681 9.76351C12.7357 9.73924 12.6547 9.77969 12.6547 9.77969L11.7804 10.6535C11.7561 10.6778 11.7237 10.7101 11.6995 10.7587C11.6833 10.783 11.6833 10.8154 11.6995 10.8477C11.7156 10.88 11.7399 10.9043 11.7723 10.9043C12.1042 10.9691 12.4038 11.1308 12.6466 11.3736C12.9705 11.7053 13.1486 12.1422 13.1405 12.6196C13.1324 12.9108 13.0595 13.194 12.9219 13.4367C12.8895 13.4934 12.8491 13.5581 12.7843 13.6309C12.7519 13.6795 12.7114 13.7361 12.6466 13.8008L10.3555 16.0905C10.0317 16.4061 9.59453 16.5841 9.14117 16.5841C8.6878 16.5841 8.24254 16.4061 7.9268 16.0905C7.60297 15.7588 7.42486 15.33 7.42486 14.8689C7.42486 14.4077 7.60297 13.9708 7.9268 13.6471L8.97116 12.6034C8.99545 12.571 9.00354 12.5306 8.99545 12.4982C8.83353 11.9966 8.78495 11.4869 8.85782 10.9771C8.86592 10.9367 8.84162 10.8881 8.80115 10.8719C8.76876 10.8477 8.68781 10.8881 8.68781 10.8881L6.92292 12.6439C6.32383 13.2345 6 14.0274 6 14.8608C6 15.6941 6.33193 16.487 6.92292 17.0776Z" fill="white"/>
<defs>
<linearGradient id="paint0_linear_2010_7" x1="12" y1="0" x2="12" y2="23.8125" gradientUnits="userSpaceOnUse">
<stop stop-color="#2D2D2D"/>
<stop offset="1" stop-color="#5A5A5A"/>
</linearGradient>
</defs>
</svg>
