<svg width="135" height="1" viewBox="0 0 135 1" fill="none" xmlns="http://www.w3.org/2000/svg">
<g opacity="0.5">
<path d="M1 0H0V1H1V0Z" fill="#2764E0"/>
<path d="M3 0H2V1H3V0Z" fill="#2764E0"/>
<path d="M4 0H5V1H4V0Z" fill="#2764E0"/>
<path d="M7 0H6V1H7V0Z" fill="#2764E0"/>
<path d="M8 0H9V1H8V0Z" fill="#2764E0"/>
<path d="M11 0H10V1H11V0Z" fill="#2764E0"/>
<path d="M12 0H13V1H12V0Z" fill="#2764E0"/>
<path d="M15 0H14V1H15V0Z" fill="#2764E0"/>
<path d="M16 0H17V1H16V0Z" fill="#2764E0"/>
<path d="M19 0H18V1H19V0Z" fill="#2764E0"/>
<path d="M20 0H21V1H20V0Z" fill="#2764E0"/>
<path d="M23 0H22V1H23V0Z" fill="#2764E0"/>
<path d="M24 0H25V1H24V0Z" fill="#2764E0"/>
<path d="M27 0H26V1H27V0Z" fill="#2764E0"/>
<path d="M28 0H29V1H28V0Z" fill="#2764E0"/>
<path d="M31 0H30V1H31V0Z" fill="#2764E0"/>
<path d="M32 0H33V1H32V0Z" fill="#2764E0"/>
<path d="M35 0H34V1H35V0Z" fill="#2764E0"/>
<path d="M36 0H37V1H36V0Z" fill="#2764E0"/>
<path d="M39 0H38V1H39V0Z" fill="#2764E0"/>
<path d="M40 0H41V1H40V0Z" fill="#2764E0"/>
<path d="M43 0H42V1H43V0Z" fill="#2764E0"/>
<path d="M44 0H45V1H44V0Z" fill="#2764E0"/>
<path d="M47 0H46V1H47V0Z" fill="#2764E0"/>
<path d="M48 0H49V1H48V0Z" fill="#2764E0"/>
<path d="M51 0H50V1H51V0Z" fill="#2764E0"/>
<path d="M52 0H53V1H52V0Z" fill="#2764E0"/>
<path d="M55 0H54V1H55V0Z" fill="#2764E0"/>
<path d="M56 0H57V1H56V0Z" fill="#2764E0"/>
<path d="M59 0H58V1H59V0Z" fill="#2764E0"/>
<path d="M60 0H61V1H60V0Z" fill="#2764E0"/>
<path d="M63 0H62V1H63V0Z" fill="#2764E0"/>
<path d="M64 0H65V1H64V0Z" fill="#2764E0"/>
<path d="M67 0H66V1H67V0Z" fill="#2764E0"/>
<path d="M68 0H69V1H68V0Z" fill="#2764E0"/>
<path d="M71 0H70V1H71V0Z" fill="#2764E0"/>
<path d="M72 0H73V1H72V0Z" fill="#2764E0"/>
<path d="M75 0H74V1H75V0Z" fill="#2764E0"/>
<path d="M76 0H77V1H76V0Z" fill="#2764E0"/>
<path d="M79 0H78V1H79V0Z" fill="#2764E0"/>
<path d="M80 0H81V1H80V0Z" fill="#2764E0"/>
<path d="M83 0H82V1H83V0Z" fill="#2764E0"/>
<path d="M84 0H85V1H84V0Z" fill="#2764E0"/>
<path d="M87 0H86V1H87V0Z" fill="#2764E0"/>
<path d="M88 0H89V1H88V0Z" fill="#2764E0"/>
<path d="M91 0H90V1H91V0Z" fill="#2764E0"/>
<path d="M92 0H93V1H92V0Z" fill="#2764E0"/>
<path d="M95 0H94V1H95V0Z" fill="#2764E0"/>
<path d="M96 0H97V1H96V0Z" fill="#2764E0"/>
<path d="M99 0H98V1H99V0Z" fill="#2764E0"/>
<path d="M100 0H101V1H100V0Z" fill="#2764E0"/>
<path d="M103 0H102V1H103V0Z" fill="#2764E0"/>
<path d="M104 0H105V1H104V0Z" fill="#2764E0"/>
<path d="M107 0H106V1H107V0Z" fill="#2764E0"/>
<path d="M108 0H109V1H108V0Z" fill="#2764E0"/>
<path d="M111 0H110V1H111V0Z" fill="#2764E0"/>
<path d="M112 0H113V1H112V0Z" fill="#2764E0"/>
<path d="M115 0H114V1H115V0Z" fill="#2764E0"/>
<path d="M116 0H117V1H116V0Z" fill="#2764E0"/>
<path d="M119 0H118V1H119V0Z" fill="#2764E0"/>
<path d="M120 0H121V1H120V0Z" fill="#2764E0"/>
<path d="M123 0H122V1H123V0Z" fill="#2764E0"/>
<path d="M124 0H125V1H124V0Z" fill="#2764E0"/>
<path d="M127 0H126V1H127V0Z" fill="#2764E0"/>
<path d="M128 0H129V1H128V0Z" fill="#2764E0"/>
<path d="M131 0H130V1H131V0Z" fill="#2764E0"/>
<path d="M132 0H133V1H132V0Z" fill="#2764E0"/>
<path d="M135 0H134V1H135V0Z" fill="#2764E0"/>
</g>
</svg>
