<svg width="16" height="14" viewBox="0 0 16 14" fill="none" xmlns="http://www.w3.org/2000/svg">
<path fill-rule="evenodd" clip-rule="evenodd" d="M4.33394 2.79407C4.33394 1.9763 3.66038 1.31055 2.83103 1.31055C2.00258 1.31055 1.32812 1.9763 1.32812 2.79407C1.32812 3.61185 2.00258 4.2776 2.83103 4.2776C3.66038 4.2776 4.33394 3.61185 4.33394 2.79407ZM5.66114 2.79406C5.66114 4.33438 4.39189 5.58812 2.83057 5.58812C1.27013 5.58812 0 4.33438 0 2.79406C0 1.25375 1.27013 0 2.83057 0C4.39189 0 5.66114 1.25375 5.66114 2.79406ZM15.0474 2.79394C15.0474 2.43223 14.75 2.13867 14.3836 2.13867H8.9402C8.57376 2.13867 8.27637 2.43223 8.27637 2.79394C8.27637 3.15565 8.57376 3.44921 8.9402 3.44921H14.3836C14.75 3.44921 15.0474 3.15565 15.0474 2.79394ZM10.7137 10.3185C10.7137 11.1363 11.3873 11.802 12.2167 11.802C13.046 11.802 13.7196 11.1363 13.7196 10.3185C13.7196 9.49984 13.046 8.83496 12.2167 8.83496C11.3873 8.83496 10.7137 9.49984 10.7137 10.3185ZM9.38562 10.3185C9.38562 8.77729 10.6549 7.52441 12.2162 7.52441C13.7775 7.52441 15.0468 8.77729 15.0468 10.3185C15.0468 11.8588 13.7775 13.1125 12.2162 13.1125C10.6549 13.1125 9.38562 11.8588 9.38562 10.3185ZM0.664806 9.66211H6.10732C6.47375 9.66211 6.77115 9.95567 6.77115 10.3174C6.77115 10.6791 6.47375 10.9726 6.10732 10.9726H0.664806C0.298372 10.9726 0.000976562 10.6791 0.000976562 10.3174C0.000976562 9.95567 0.298372 9.66211 0.664806 9.66211Z" fill="white"/>
</svg>
