<svg width="24" height="24" viewBox="0 0 24 24" fill="none" xmlns="http://www.w3.org/2000/svg">
<path d="M16.8101 10.658C16.7363 9.19371 15.6079 7.98431 14.2261 7.98431C12.8666 7.98431 11.8 9.59288 11.8 9.59288C11.8 9.59288 11.7999 9.59278 11.7998 9.59255C11.7996 9.59278 11.7996 9.59288 11.7996 9.59288C11.7996 9.59288 10.733 7.98431 9.37349 7.98431C7.99164 7.98431 6.86326 9.19371 6.78943 10.658C6.74766 11.4852 6.99824 12.1122 7.35304 12.6849C8.06524 13.8341 11.7967 16.4704 11.7998 16.4679C11.8029 16.4703 15.5343 13.8341 16.2465 12.6849C16.6013 12.1122 16.8519 11.4852 16.8101 10.658Z" stroke="black" stroke-width="1.5" stroke-miterlimit="10" stroke-linecap="round" stroke-linejoin="round"/>
<path d="M21.9857 15.396C23.3237 11.5978 22.4739 7.2008 19.4363 4.16317C15.2187 -0.0543908 8.38074 -0.0543908 4.16317 4.16317C-0.0543908 8.38074 -0.0543908 15.2187 4.16317 19.4363C8.38041 23.6535 15.2176 23.6538 19.4353 19.4373L23 23" stroke="black" stroke-width="1.5" stroke-miterlimit="10" stroke-linecap="round" stroke-linejoin="round"/>
</svg>
