<svg width="18" height="18" viewBox="0 0 18 18" fill="none" xmlns="http://www.w3.org/2000/svg">
<path d="M8.09998 8.09998V13.5H9.90002V8.09998H8.09998Z" fill="#778899"/>
<path d="M8.09998 6.30005V4.5H9.90002V6.30005H8.09998Z" fill="#778899"/>
<path fill-rule="evenodd" clip-rule="evenodd" d="M9 0C4.02753 0 0 4.02747 0 9C0 13.9724 4.02753 18 9 18C13.9724 18 18 13.9725 18 9C18 4.02747 13.9725 0 9 0ZM9 16.2C5.03101 16.2 1.79999 12.969 1.79999 9C1.79999 5.03101 5.03101 1.80005 9 1.80005C12.969 1.80005 16.2 5.03101 16.2 9C16.2 12.969 12.969 16.2 9 16.2Z" fill="#778899"/>
</svg>
