<svg width="13" height="9" viewBox="0 0 13 9" fill="none" xmlns="http://www.w3.org/2000/svg">
<path d="M0.291929 5.36516C0.199687 5.27816 0.126245 5.17348 0.0760611 5.05747C0.0258775 4.94147 0 4.81656 0 4.69034C0 4.56412 0.0258775 4.43921 0.0760611 4.3232C0.126245 4.2072 0.199687 4.10252 0.291929 4.01551L0.259328 4.04588C0.451232 3.86575 0.705664 3.76568 0.969935 3.76641C1.23421 3.76714 1.48807 3.86861 1.67896 4.04979L4.52416 6.7628L11.3259 0.277048C11.5175 0.098892 11.7703 -0.000181715 12.033 2.50214e-07C12.2956 0.000182216 12.5484 0.0996062 12.7397 0.278027L12.7071 0.247665C12.7999 0.334835 12.8738 0.439919 12.9242 0.556453C12.9746 0.672988 13.0004 0.798508 13 0.925294C12.9996 1.05208 12.9731 1.17745 12.922 1.29369C12.871 1.40994 12.7965 1.5146 12.7031 1.60123L5.23644 8.7197C5.04439 8.8989 4.79084 8.99909 4.52711 8.99999C4.26337 9.0009 4.00913 8.90246 3.81582 8.72459L0.291929 5.36516Z" fill="white"/>
</svg>
