<svg width="14" height="14" viewBox="0 0 14 14" fill="none" xmlns="http://www.w3.org/2000/svg">
<path fill-rule="evenodd" clip-rule="evenodd" d="M6.98381 8.28542C4.93899 8.28542 3.2824 6.39342 3.2824 4.06087C3.2824 1.72832 4.93899 0 6.98381 0C9.02863 0 10.6867 1.72832 10.6867 4.06087C10.6867 6.39342 9.02863 8.28542 6.98381 8.28542ZM1.22622 13.9975C1.22622 13.9975 0.440685 14.0465 0.0948365 13.593C-0.0920883 13.3471 0.0380786 12.8503 0.165974 12.5734L0.479281 11.8935C0.479281 11.8935 1.34428 10.0491 2.32961 8.9805C2.93503 8.32508 3.65473 8.47433 4.12015 8.68704C4.40697 8.81827 4.73163 9.20042 4.9685 9.40303C5.29467 9.68207 5.87134 9.99933 6.81353 10.0174H7.39171C8.33391 9.99933 8.90981 9.68207 9.23599 9.40303C9.47286 9.20042 9.78844 8.80673 10.0722 8.67118C10.4998 8.46712 11.1499 8.34166 11.7394 8.9805C12.7247 10.0491 13.5057 11.9267 13.5057 11.9267L13.8266 12.5936C13.9591 12.869 14.0953 13.3637 13.9136 13.6117C13.589 14.0559 12.861 13.9975 12.861 13.9975H1.22622Z" fill="#C6CAD9"/>
</svg>
