<svg width="14" height="12" viewBox="0 0 14 12" fill="none" xmlns="http://www.w3.org/2000/svg">
<path fill-rule="evenodd" clip-rule="evenodd" d="M7.32639 6.59478C7.13266 6.73888 6.86734 6.73888 6.67361 6.59478L1.09375 2.44443V1.64063C1.09375 1.33861 1.33861 1.09375 1.64063 1.09375H12.3594C12.6614 1.09375 12.9063 1.33861 12.9063 1.64063V2.44443L7.32639 6.59478ZM7.97917 7.47238L14 2.99402V1.64063C14 0.734544 13.2655 0 12.3594 0H1.64063C0.734544 0 4.69387e-07 0.734544 4.69387e-07 1.64063V2.99402L6.02083 7.47238C6.60203 7.90468 7.39797 7.90468 7.97917 7.47238Z" fill="black"/>
<path d="M12.9063 5.17069V9.73439C12.9063 10.0359 12.6609 10.2813 12.3594 10.2813H1.64062C1.33908 10.2813 1.09375 10.0359 1.09375 9.73439V5.17069L0 4.35716V9.73439C0 10.639 0.735984 11.375 1.64062 11.375H12.3594C13.264 11.375 14 10.639 14 9.73439V4.35716L12.9063 5.17069Z" fill="black"/>
</svg>
