<svg width="17" height="16" viewBox="0 0 17 16" fill="none" xmlns="http://www.w3.org/2000/svg">
<path d="M8.49979 11.2435C8.02452 11.2435 7.62613 11.6537 7.62613 12.143C7.62613 12.6323 8.02452 13.0425 8.49979 13.0425C8.95758 13.0425 9.37344 12.6323 9.35247 12.1646C9.37344 11.6501 8.97855 11.2435 8.49979 11.2435Z" fill="#DDDDDD"/>
<path d="M16.5863 14.4313C17.135 13.4563 17.1385 12.2941 16.5933 11.3227L11.1207 1.5651C10.5791 0.582865 9.60059 0 8.50328 0C7.40597 0 6.42748 0.586463 5.88582 1.5615L0.406265 11.3299C-0.138894 12.3121 -0.135399 13.4814 0.416749 14.4565C0.961909 15.4207 1.93691 16 3.02722 16H13.9584C15.0522 16 16.0342 15.4135 16.5863 14.4313ZM15.3981 13.7261C15.0941 14.2658 14.5559 14.586 13.9549 14.586H3.02373C2.42965 14.586 1.89497 14.273 1.59793 13.7441C1.29739 13.208 1.2939 12.5676 1.59443 12.0279L7.07398 2.2631C7.37103 1.72701 7.90221 1.41039 8.50328 1.41039C9.10086 1.41039 9.63553 1.73061 9.93258 2.2667L15.4086 12.0315C15.7022 12.5568 15.6987 13.19 15.3981 13.7261Z" fill="#DDDDDD"/>
<path d="M8.28312 4.92917C7.86726 5.0515 7.60866 5.44007 7.60866 5.9114C7.62963 6.19564 7.6471 6.48347 7.66807 6.76771C7.72748 7.85069 7.78688 8.91208 7.84629 9.99505C7.86726 10.362 8.14334 10.6283 8.49979 10.6283C8.85624 10.6283 9.1358 10.3441 9.15328 9.97347C9.15328 9.75039 9.15328 9.54531 9.17425 9.31864C9.21269 8.62424 9.25462 7.92984 9.29306 7.23544C9.31403 6.7857 9.35247 6.33596 9.37344 5.88622C9.37344 5.72431 9.35247 5.58039 9.29306 5.43647C9.11484 5.03351 8.69898 4.82842 8.28312 4.92917Z" fill="#DDDDDD"/>
</svg>
