<svg width="14" height="13" viewBox="0 0 14 13" fill="none" xmlns="http://www.w3.org/2000/svg">
<path d="M6.99982 9.13537C6.60843 9.13537 6.28034 9.46863 6.28034 9.8662C6.28034 10.2638 6.60843 10.597 6.99982 10.597C7.37683 10.597 7.7193 10.2638 7.70203 9.88374C7.7193 9.46571 7.3941 9.13537 6.99982 9.13537Z" fill="#C3094F"/>
<path d="M13.6593 11.7254C14.1112 10.9332 14.114 9.98898 13.6651 9.19969L9.15826 1.27164C8.71218 0.473578 7.90637 0 7.0027 0C6.09904 0 5.29322 0.476501 4.84714 1.26872L0.334571 9.20553C-0.114383 10.0036 -0.111505 10.9537 0.343205 11.7459C0.79216 12.5293 1.5951 13 2.49301 13H11.4951C12.3959 13 13.2046 12.5235 13.6593 11.7254ZM12.6808 11.1525C12.4304 11.591 11.9873 11.8511 11.4922 11.8511H2.49013C2.00088 11.8511 1.56056 11.5968 1.31594 11.1671C1.06844 10.7315 1.06556 10.2112 1.31306 9.77266L5.82563 1.83877C6.07026 1.40319 6.5077 1.14594 7.0027 1.14594C7.49482 1.14594 7.93515 1.40612 8.17977 1.84169L12.6895 9.77558C12.9312 10.2024 12.9283 10.7169 12.6808 11.1525Z" fill="#C3094F"/>
<path d="M6.82139 4.00495C6.47892 4.10434 6.26595 4.42006 6.26595 4.80301C6.28322 5.03396 6.29761 5.26782 6.31488 5.49876C6.3638 6.37868 6.41273 7.24106 6.46165 8.12098C6.47892 8.41916 6.70628 8.63548 6.99982 8.63548C7.29337 8.63548 7.5236 8.40454 7.53799 8.10344C7.53799 7.92219 7.53799 7.75556 7.55526 7.57139C7.58692 7.00719 7.62145 6.44299 7.65311 5.87879C7.67038 5.51338 7.70203 5.14796 7.7193 4.78255C7.7193 4.651 7.70203 4.53407 7.65311 4.41713C7.50634 4.08972 7.16386 3.92309 6.82139 4.00495Z" fill="#C3094F"/>
</svg>
