<svg width="24" height="24" viewBox="0 0 24 24" fill="none" xmlns="http://www.w3.org/2000/svg">
<path d="M6.10078 0C5.96641 0 5.69765 0 5.45577 0C4.91825 0.0268757 4.21948 0.0537514 3.92385 0.134378C3.44009 0.241881 2.9832 0.37626 2.60694 0.56439C2.17693 0.779395 1.7738 1.07503 1.42441 1.42441C1.07503 1.7738 0.806271 2.15006 0.56439 2.60694C0.37626 2.9832 0.215006 3.44009 0.134378 3.89698C0.0806271 4.21948 0.0268757 4.91825 0 5.45577V6.10078V17.8992V18.5442C0.0268757 19.0817 0.0537514 19.7805 0.134378 20.0761C0.241881 20.5599 0.37626 21.0168 0.56439 21.3931C0.779395 21.8231 1.07503 22.2262 1.42441 22.5756C1.7738 22.925 2.15006 23.1937 2.60694 23.4356C2.9832 23.6237 3.44009 23.785 3.89698 23.8656C4.21948 23.9194 4.91825 23.9731 5.45577 24H6.10078H17.8992H18.5442C19.0817 23.9731 19.7805 23.9462 20.0761 23.8656C20.5599 23.7581 21.0168 23.6237 21.3931 23.4356C21.8231 23.2206 22.2262 22.925 22.5756 22.5756C22.925 22.2262 23.1937 21.8499 23.4356 21.3931C23.6237 21.0168 23.785 20.5599 23.8656 20.103C23.9194 19.7805 23.9731 19.0817 24 18.5442C24 18.3292 24 18.0336 24 17.8992V6.10078C24 5.96641 24 5.69765 24 5.45577C23.9731 4.91825 23.9462 4.21948 23.8656 3.92385C23.7581 3.44009 23.6237 2.9832 23.4356 2.60694C23.2206 2.17693 22.925 1.7738 22.5756 1.42441C22.2262 1.07503 21.8499 0.806271 21.3931 0.56439C21.0168 0.37626 20.5599 0.215006 20.103 0.134378C19.7805 0.0806271 19.0817 0.0268757 18.5442 0C18.3292 0 18.0336 0 17.8992 0H6.10078Z" fill="url(#paint0_linear_2010_6)"/>
<path fill-rule="evenodd" clip-rule="evenodd" d="M5.8934 12.1659C9.38188 10.4724 11.7081 9.35598 12.872 8.8166C16.1953 7.2765 16.8858 7.00895 17.3359 7.00009C17.4349 6.99817 17.6562 7.02551 17.7996 7.15515C18.0123 7.34744 18.0135 7.76483 17.9899 8.04108C17.8098 10.1494 17.0305 15.2657 16.6341 17.6271C16.4663 18.6262 16.136 18.9613 15.8163 18.9941C15.1214 19.0653 14.5937 18.4823 13.9206 17.9908C12.8674 17.2215 12.2724 16.7426 11.2501 15.992C10.0686 15.1245 10.8345 14.6478 11.5078 13.8685C11.684 13.6646 14.7459 10.5616 14.8051 10.28C14.8126 10.2448 14.8194 10.1136 14.7494 10.0443C14.6795 9.97504 14.5762 9.99869 14.5017 10.0175C14.3961 10.0443 12.7135 11.2834 9.45415 13.7348C8.97656 14.1003 8.54399 14.2783 8.15643 14.2689C7.72914 14.2587 6.90728 13.9998 6.29629 13.7785C5.54688 13.5071 4.95126 13.3635 5.00315 12.9026C5.03017 12.6624 5.3269 12.4169 5.8934 12.1659Z" fill="white"/>
<defs>
<linearGradient id="paint0_linear_2010_6" x1="12" y1="0" x2="12" y2="23.8125" gradientUnits="userSpaceOnUse">
<stop stop-color="#2AABEE"/>
<stop offset="1" stop-color="#229ED9"/>
</linearGradient>
</defs>
</svg>
