<svg width="23" height="24" viewBox="0 0 23 24" fill="none" xmlns="http://www.w3.org/2000/svg">
<path d="M22.7124 5.10763C22.7124 4.80315 22.5285 4.52881 22.2468 4.41308L11.6415 0.0563145C11.4587 -0.0187715 11.2537 -0.0187715 11.0709 0.0563145L0.465533 4.41308C0.183914 4.52876 0 4.80315 0 5.10763V18.8924C0 19.1968 0.183867 19.4712 0.465533 19.5869L11.0709 23.9437C11.2517 24.018 11.455 24.0196 11.6406 23.9436C11.6496 23.9406 11.2481 24.1053 22.2468 19.5869C22.5285 19.4712 22.7124 19.1968 22.7124 18.8924V5.10763ZM11.3562 8.71579L7.44852 7.1105L15.8934 3.42655L20.0624 5.13921L11.3562 8.71579ZM1.50172 6.29098L4.87312 7.67599V11.5835C4.87312 11.9981 5.20932 12.3343 5.62398 12.3343C6.03865 12.3343 6.37484 11.9981 6.37484 11.5835V8.29291L10.6053 10.0308V22.1289L1.50172 18.3891V6.29098ZM11.3562 1.56259L13.9591 2.6319L5.51426 6.31585L2.64997 5.13916L11.3562 1.56259ZM12.107 10.0308L21.2107 6.29098V18.3891L12.107 22.1289V10.0308Z" fill="black"/>
</svg>
