<svg width="24" height="24" viewBox="0 0 24 24" fill="none" xmlns="http://www.w3.org/2000/svg">
<path d="M6.10078 0C5.96641 0 5.69765 0 5.45577 0C4.91825 0.0268757 4.21948 0.0537514 3.92385 0.134378C3.44009 0.241881 2.9832 0.37626 2.60694 0.56439C2.17693 0.779395 1.7738 1.07503 1.42441 1.42441C1.07503 1.7738 0.806271 2.15006 0.56439 2.60694C0.37626 2.9832 0.215006 3.44009 0.134378 3.89698C0.0806271 4.21948 0.0268757 4.91825 0 5.45577V6.10078V17.8992V18.5442C0.0268757 19.0817 0.0537514 19.7805 0.134378 20.0761C0.241881 20.5599 0.37626 21.0168 0.56439 21.3931C0.779395 21.8231 1.07503 22.2262 1.42441 22.5756C1.7738 22.925 2.15006 23.1937 2.60694 23.4356C2.9832 23.6237 3.44009 23.785 3.89698 23.8656C4.21948 23.9194 4.91825 23.9731 5.45577 24H6.10078H17.8992H18.5442C19.0817 23.9731 19.7805 23.9462 20.0761 23.8656C20.5599 23.7581 21.0168 23.6237 21.3931 23.4356C21.8231 23.2206 22.2262 22.925 22.5756 22.5756C22.925 22.2262 23.1937 21.8499 23.4356 21.3931C23.6237 21.0168 23.785 20.5599 23.8656 20.103C23.9194 19.7805 23.9731 19.0817 24 18.5442C24 18.3292 24 18.0336 24 17.8992V6.10078C24 5.96641 24 5.69765 24 5.45577C23.9731 4.91825 23.9462 4.21948 23.8656 3.92385C23.7581 3.44009 23.6237 2.9832 23.4356 2.60694C23.2206 2.17693 22.925 1.7738 22.5756 1.42441C22.2262 1.07503 21.8499 0.806271 21.3931 0.56439C21.0168 0.37626 20.5599 0.215006 20.103 0.134378C19.7805 0.0806271 19.0817 0.0268757 18.5442 0C18.3292 0 18.0336 0 17.8992 0H6.10078Z" fill="url(#paint0_linear_687_899)"/>
<path d="M16.3675 13.2766C16.1525 13.1691 15.0775 12.6585 14.8893 12.5779C14.7012 12.4972 14.54 12.4704 14.4056 12.6854C14.2712 12.9004 13.8412 13.3841 13.7337 13.5185C13.5993 13.6529 13.4918 13.6798 13.2768 13.5723C13.0618 13.4648 12.363 13.2498 11.5299 12.5241C10.8849 11.9597 10.4548 11.261 10.3205 11.0459C10.1861 10.8309 10.3205 10.7234 10.428 10.6159C10.5355 10.5084 10.643 10.3741 10.7505 10.2397C10.858 10.1053 10.8849 10.0247 10.9655 9.89029C11.0461 9.75591 10.9924 9.62153 10.9386 9.51403C10.8849 9.40653 10.4548 8.35838 10.2667 7.92837C10.0786 7.52523 9.91733 7.57898 9.78295 7.5521C9.64857 7.5521 9.5142 7.5521 9.37982 7.5521C9.24544 7.5521 9.00356 7.60586 8.81543 7.82086C8.6273 8.03587 8.06291 8.54651 8.06291 9.59466C8.06291 10.6428 8.8423 11.6372 8.94981 11.7985C9.05731 11.9328 10.4817 14.0829 12.6318 14.9967C13.1424 15.2117 13.5456 15.3461 13.8681 15.4536C14.3787 15.6148 14.8625 15.5879 15.2387 15.5342C15.6419 15.4804 16.5288 15.0235 16.69 14.5398C16.8781 14.056 16.8781 13.626 16.8244 13.5454C16.7169 13.4379 16.5825 13.3841 16.3675 13.2766ZM12.2555 18.813C10.9655 18.813 9.7292 18.4636 8.6273 17.8186L8.35854 17.6574L5.67097 18.3561L6.39661 15.7492L6.23536 15.4804C5.53659 14.3517 5.16033 13.0616 5.16033 11.7178C5.16033 7.82086 8.35854 4.64953 12.2824 4.64953C14.1368 4.64953 15.9375 5.37517 17.2813 6.71896C18.6251 8.06274 19.3507 9.83654 19.3507 11.7178C19.3507 15.6148 16.1525 18.813 12.2555 18.813ZM18.3026 5.69768C16.69 4.08514 14.54 3.19824 12.2555 3.19824C7.55227 3.19824 3.70904 7.01459 3.70904 11.7178C3.70904 13.2229 4.11218 14.6742 4.83782 15.9642L3.62842 20.3718L8.14354 19.1893C9.37982 19.8612 10.8042 20.2374 12.2286 20.2374C16.9319 20.2374 20.7751 16.4211 20.7751 11.7178C20.802 9.46028 19.9151 7.31022 18.3026 5.69768Z" fill="white"/>
<defs>
<linearGradient id="paint0_linear_687_899" x1="12.0081" y1="0.00537514" x2="12.0081" y2="23.9839" gradientUnits="userSpaceOnUse">
<stop stop-color="#62FA7F"/>
<stop offset="0.6865" stop-color="#22CC40"/>
<stop offset="1" stop-color="#05B723"/>
</linearGradient>
</defs>
</svg>
